<?xml version="1.0" encoding="utf-8"?>
<!-- Generator: Adobe Illustrator 23.0.1, SVG Export Plug-In . SVG Version: 6.00 Build 0)  -->
<svg version="1.1" id="Livello_1" xmlns="http://www.w3.org/2000/svg" xmlns:xlink="http://www.w3.org/1999/xlink" x="0px" y="0px"
	 viewBox="0 0 74.49 74.49" style="enable-background:new 0 0 74.49 74.49;" xml:space="preserve">
<style type="text/css">
	.st0{fill:#E47708;}
</style>
<g>
	<g>
		<path class="st0" d="M42.55,35.06c-0.39,0-0.76-0.23-0.92-0.61c-2.6-6.07,6.3-12.09,9.04-13.76l-2.54-6.53
			c-8.03,0.97-15.16,11.21-15.23,11.32c-0.23,0.34-0.64,0.5-1.05,0.41c-0.4-0.09-0.71-0.41-0.77-0.82
			c-0.71-4.27-4.46-11.37-5.72-13.65l-6.78,2.39c-0.52,0.19-1.1-0.09-1.28-0.61c-0.18-0.52,0.09-1.1,0.61-1.28l7.58-2.68
			c0.46-0.16,0.97,0.03,1.21,0.45c0.2,0.34,4.25,7.47,5.85,12.91c2.65-3.3,8.99-10.15,16.19-10.51c0.44-0.02,0.83,0.24,0.99,0.64
			l3.12,8.03c0.18,0.47-0.01,1-0.45,1.24c-3.13,1.74-10.83,7.23-8.93,11.66c0.22,0.51-0.02,1.1-0.53,1.32
			C42.82,35.03,42.69,35.06,42.55,35.06z"/>
	</g>
	<g>
		<path class="st0" d="M42.37,68.49c-11.38,0-17.31-5.56-20.29-10.23c-4.69-7.37-5.07-17.34-2.74-22.35
			c3.25-6.96-2.91-17.55-2.97-17.66c-0.28-0.48-0.12-1.09,0.35-1.38c0.48-0.28,1.09-0.12,1.38,0.35c0.28,0.47,6.76,11.6,3.06,19.53
			C19.33,40.7,19.21,50,23.78,57.17c3.88,6.09,10.3,9.3,18.59,9.3c6.64,0,10.96-2.78,12.84-8.25c3.45-10.05-2.41-25.36-7.93-29.65
			c-0.44-0.34-0.52-0.97-0.18-1.41c0.34-0.44,0.97-0.52,1.41-0.18c6.09,4.74,12.36,20.91,8.59,31.89
			C55.6,63.26,51.83,68.49,42.37,68.49z"/>
	</g>
	<g>
		<path class="st0" d="M30.31,15.22c-0.37,0-0.72-0.2-0.9-0.56c-0.25-0.5-0.05-1.1,0.45-1.35l1.19-0.59
			c-0.57-1.62-1.36-4.85,0.82-5.94c0.69-0.34,1.71-0.75,2.67-0.28c1.11,0.54,1.48,1.96,1.78,3.5c0.03,0.15,0.07,0.25,0.09,0.3
			c0.25-0.05,0.74-0.37,1.12-0.72c0.5-0.93,2.66-4.62,5.28-3.3c1.25,0.63,1.58,1.53,1.64,2.18c0.03,0.37-0.02,0.76-0.15,1.15
			c1.09-0.24,2.15-0.29,2.82,0.14c0.49,0.32,0.76,0.83,0.76,1.45c0,0.56-0.45,1.01-1.01,1.01c-0.48,0-0.88-0.34-0.98-0.78
			c-0.67-0.06-2.52,0.46-4.13,1.2c-0.47,0.21-1.02,0.04-1.28-0.4c-0.26-0.44-0.15-1.01,0.26-1.32c1.22-0.92,1.74-1.81,1.7-2.26
			c-0.01-0.08-0.03-0.3-0.54-0.56c-0.74-0.37-2.11,1.45-2.67,2.57c-0.05,0.1-0.11,0.18-0.19,0.26c-0.42,0.42-1.89,1.75-3.28,1.33
			c-0.52-0.16-1.18-0.6-1.43-1.84c-0.35-1.75-0.6-2.04-0.69-2.08c0,0-0.21-0.06-0.89,0.27c-0.71,0.35-0.2,2.7,0.47,4.22
			c0.22,0.49,0.01,1.07-0.47,1.31l-2.01,1.01C30.62,15.19,30.46,15.22,30.31,15.22z"/>
	</g>
	<g>
		<path class="st0" d="M41.37,66.98c-0.26,0-0.51-0.1-0.71-0.29c-0.36-0.36-8.89-8.98-7.82-15.94c0.22-1.41,0.48-2.75,0.73-4.05
			c0.86-4.47,1.54-8-0.38-9.6c-0.43-0.36-0.48-0.99-0.13-1.42c0.36-0.43,0.99-0.48,1.42-0.13c2.83,2.36,2.01,6.61,1.06,11.53
			c-0.25,1.28-0.5,2.6-0.71,3.97c-0.92,5.96,7.17,14.13,7.25,14.21c0.39,0.39,0.39,1.03,0,1.42C41.88,66.88,41.62,66.98,41.37,66.98
			z"/>
	</g>
	<g>
		<path class="st0" d="M33.83,49.89c-0.15,0-0.3-0.03-0.45-0.11c-0.14-0.07-3.33-1.7-4.97-4.97c-1.5-3-2.18-3.33-3.93-2.98
			c-0.54,0.11-1.07-0.24-1.18-0.79c-0.11-0.54,0.24-1.07,0.79-1.18c3.45-0.69,4.76,1.34,6.12,4.05c1.34,2.68,4.05,4.06,4.07,4.07
			c0.5,0.25,0.7,0.85,0.45,1.35C34.55,49.69,34.2,49.89,33.83,49.89z"/>
	</g>
	<g>
		<path class="st0" d="M25.28,47.88c-0.15,0-0.3-0.03-0.45-0.11c-0.5-0.25-0.7-0.85-0.45-1.35c1.27-2.54,4.77-2.57,4.92-2.57
			c0.56,0,1.01,0.45,1.01,1.01c0,0.55-0.45,1-1,1.01l0,0c-0.02,0-2.42,0.05-3.12,1.45C26.01,47.68,25.65,47.88,25.28,47.88z"/>
	</g>
	<g>
		<path class="st0" d="M34.64,57.17c-0.5,0-0.93-0.37-1-0.87c-0.07-0.55,0.32-1.05,0.87-1.13c0.09-0.01,5.17-0.73,6.43-3.67
			c0.24-0.56,0.44-1.06,0.62-1.52c0.98-2.47,1.62-4.1,5.05-5.08c0.53-0.15,1.09,0.16,1.24,0.69c0.15,0.53-0.16,1.09-0.69,1.24
			c-2.48,0.71-2.79,1.51-3.74,3.89c-0.19,0.48-0.4,1-0.64,1.57c-1.71,4-7.76,4.83-8.01,4.87C34.73,57.17,34.69,57.17,34.64,57.17z"
			/>
	</g>
	<g>
		<path class="st0" d="M42.66,54.88c-1.62,0-2.32-0.45-2.54-0.64l1.31-1.53c0,0-0.02-0.02-0.07-0.05c0.01,0.01,1.03,0.59,4.29-0.23
			c0.54-0.13,1.08,0.19,1.22,0.73c0.13,0.54-0.19,1.08-0.73,1.22C44.66,54.75,43.53,54.88,42.66,54.88z"/>
	</g>
	<g>
		<path class="st0" d="M42.57,51.2c-0.33,0-0.64-0.16-0.84-0.45c-0.26-0.39-2.49-3.87-1.26-6.33c0.25-0.5,0.85-0.7,1.35-0.45
			c0.5,0.25,0.7,0.85,0.45,1.35c-0.56,1.12,0.52,3.39,1.14,4.32c0.31,0.46,0.18,1.09-0.28,1.39C42.95,51.14,42.76,51.2,42.57,51.2z"
			/>
	</g>
</g>
</svg>
