<?xml version="1.0" encoding="utf-8"?>
<!-- Generator: Adobe Illustrator 23.0.1, SVG Export Plug-In . SVG Version: 6.00 Build 0)  -->
<svg version="1.1" id="Livello_1" xmlns="http://www.w3.org/2000/svg" xmlns:xlink="http://www.w3.org/1999/xlink" x="0px" y="0px"
	 viewBox="0 0 74.49 74.49" style="enable-background:new 0 0 74.49 74.49;" xml:space="preserve">
<style type="text/css">
	.st0{fill:#E47708;}
</style>
<g>
	<g>
		<path class="st0" d="M37.24,63.17c-14.3,0-25.93-11.63-25.93-25.93s11.63-25.93,25.93-25.93s25.93,11.63,25.93,25.93
			S51.54,63.17,37.24,63.17z M37.24,13.91c-12.87,0-23.33,10.47-23.33,23.33s10.47,23.33,23.33,23.33s23.33-10.47,23.33-23.33
			S50.11,13.91,37.24,13.91z"/>
	</g>
	<g>
		<circle class="st0" cx="28.43" cy="30.5" r="3.63"/>
	</g>
	<g>
		<circle class="st0" cx="43.98" cy="30.5" r="2.59"/>
	</g>
	<g>
		<path class="st0" d="M47.36,46.06H26.61c-0.72,0-1.3-0.58-1.3-1.3c0-0.72,0.58-1.3,1.3-1.3h20.74c0.72,0,1.3,0.58,1.3,1.3
			C48.65,45.48,48.07,46.06,47.36,46.06z"/>
	</g>
</g>
</svg>
