<?xml version="1.0" encoding="utf-8"?>
<!-- Generator: Adobe Illustrator 23.0.1, SVG Export Plug-In . SVG Version: 6.00 Build 0)  -->
<svg version="1.1" id="Livello_1" xmlns="http://www.w3.org/2000/svg" xmlns:xlink="http://www.w3.org/1999/xlink" x="0px" y="0px"
	 viewBox="0 0 74.49 74.49" style="enable-background:new 0 0 74.49 74.49;" xml:space="preserve">
<style type="text/css">
	.st0{fill:#E47708;}
</style>
<g>
	<g>
		<path class="st0" d="M14.08,52.6c0.04-0.05,0.19-0.27,0.07-0.1c0.16-0.21,0.34-0.42,0.52-0.62c0.58-0.66,1.21-1.28,1.89-1.85
			c1.8-1.51,3.89-2.45,6.23-2.65c3.14-0.27,6.27-1.35,8.76-3.29c3.17-2.47,4.77-6.22,4.78-10.2c0.01-2.99-0.79-5.93-1.62-8.78
			c-0.66-2.28-1.45-4.53-2.44-6.69c-0.63-1.38-1.38-2.67-2.11-3.99c-0.48-0.88-0.78-1.58-0.79-2.48c-0.01-1.14-1.77-1.14-1.76,0
			c0.02,2.11,1.35,3.85,2.3,5.65c0.88,1.67,1.61,3.42,2.22,5.21c0.97,2.78,1.87,5.71,2.28,8.64c0.56,4.09-0.38,8.23-3.61,10.99
			c-2.23,1.91-5.23,2.96-8.13,3.2c-4.07,0.34-7.77,2.78-10.11,6.1C11.9,52.64,13.43,53.52,14.08,52.6L14.08,52.6z"/>
	</g>
	<g>
		<path class="st0" d="M12.12,56.8c1.71,4.46,6.56,7.32,11.07,8.08c5.92,1.01,12.02-0.59,17.48-2.81c5.6-2.28,10.8-5.6,14.66-10.31
			c4.58-5.59,7.18-12.84,7.11-20.09c-0.01-0.46-0.01-0.93-0.06-1.39c-0.33-2.94-1.26-5.99-2.41-8.71c-1.58-3.74-4.09-7.24-8-8.72
			c-2.72-1.04-5.78-0.84-8.53,0.01c-1.71,0.53-3.63,1.27-5.07,2.37c-0.08,0.06-0.16,0.11-0.25,0.17c0.36,0.05,0.71,0.09,1.07,0.14
			c-0.02-0.02-0.06-0.06-0.06-0.08c0.04,0.17-0.08-0.1-0.14-0.2c-0.25-0.37-0.49-0.75-0.71-1.15c-0.73-1.31-1.21-2.72-1.5-4.18
			c-0.23-1.11-1.93-0.64-1.7,0.47c0.45,2.26,1.38,4.6,2.87,6.39c0.23,0.27,0.77,0.35,1.07,0.14c2.9-2.08,6.76-3.42,10.35-2.93
			c3.24,0.44,5.8,2.61,7.5,5.35c1.4,2.26,2.3,4.79,2.96,7.36c0.34,1.31,0.74,2.67,0.82,4.03c0.34,5.86-1.4,11.94-4.49,16.88
			c-2.77,4.43-6.74,7.96-11.27,10.51c-5.36,3.01-11.78,5.29-17.99,5.31c-3.48,0.01-7.05-0.84-9.79-3.04c-1.47-1.17-2.41-2.36-3.24-4
			c-0.16-0.31,0.03,0.08-0.03-0.06C13.42,55.28,11.71,55.74,12.12,56.8L12.12,56.8z"/>
	</g>
	<path class="st0" d="M18,58.77c0,0-5.64-4.24,0.53-8.11c0,0,2.65-1.41,7.41-1.59s10.05-5.12,11.29-10.23c0,0,2.11,0.71,3.35-0.35
		c1.23-1.06,3.35,0.35,3.35,0.35s1.76,0.53,2.65-0.18c0.88-0.71,3-0.35,3.53,0s3.18,0,3.35-0.35c0.18-0.35,3.35-0.35,3.53,0.35
		c0.18,0.71-1.41,13.06-17.64,20.11C39.34,58.77,26.29,63.36,18,58.77z"/>
	<circle class="st0" cx="42.26" cy="31.86" r="1.15"/>
	<circle class="st0" cx="52.22" cy="35.3" r="1.23"/>
	<circle class="st0" cx="50.64" cy="26.31" r="1.41"/>
	<circle class="st0" cx="42.26" cy="23.22" r="1.15"/>
</g>
</svg>
