<?xml version="1.0" encoding="utf-8"?>
<!-- Generator: Adobe Illustrator 23.0.1, SVG Export Plug-In . SVG Version: 6.00 Build 0)  -->
<svg version="1.1" id="Livello_2" xmlns="http://www.w3.org/2000/svg" xmlns:xlink="http://www.w3.org/1999/xlink" x="0px" y="0px"
	 viewBox="0 0 100 100" style="enable-background:new 0 0 100 100;" xml:space="preserve">
<style type="text/css">
	.st0{fill:#DAD2D8;}
</style>
<g>
	<path class="st0" d="M24.7,83.2l6.6-6.6L22,67.4L15.5,74c-2.6-0.1-5.2,0.8-7.2,2.8c-3.8,3.8-3.8,9.9,0,13.6s9.9,3.8,13.6,0
		C23.9,88.4,24.8,85.8,24.7,83.2z"/>
	<rect x="27.8" y="62.7" transform="matrix(0.7071 -0.7071 0.7071 0.7071 -40.303 41.0993)" class="st0" width="3.4" height="13"/>
	<path class="st0" d="M46.3,73.4L24.2,51.2c0,0-1.8-1.4-3.5,0.4c-1.2,1.2-0.6,2.3-0.2,2.8l22.7,22.7c0.5,0.4,1.5,1,2.8-0.2
		C47.7,75.1,46.3,73.4,46.3,73.4z"/>
	<polygon class="st0" points="36.6,59.3 78.1,20.6 39,61.6 44.6,67.2 86.4,29.6 90,8.7 69,12.2 31.4,54.1 	"/>
</g>
</svg>
