<?xml version="1.0" encoding="utf-8"?>
<!-- Generator: Adobe Illustrator 23.0.1, SVG Export Plug-In . SVG Version: 6.00 Build 0)  -->
<svg version="1.1" id="Livello_1" xmlns="http://www.w3.org/2000/svg" xmlns:xlink="http://www.w3.org/1999/xlink" x="0px" y="0px"
	 viewBox="0 0 528 175" style="enable-background:new 0 0 528 175;" xml:space="preserve">
<path d="M528,122.5V6.5c0-0.3-0.9-0.8-2.1-1.4c-0.5,3.1-1.6,10.3-1.6,12.4c0,2.8,0.9,3.7,0,7.4s0,13,0,13.9s-0.9,0-0.9,0L522.4,24
	c0,0-0.9-4.6,0-6.5c0.9-1.9,0.9-11.2,0.9-11.2s0.3-1.2,0.9-2.1c-1.9-0.9-3.7-1.6-3.7-1.6h-21.4l-10.5-2.8h-78.3
	c-24.7,0-87.8,3.7-92.4,2.8s-28.8,0-28.8,0l1.8-2.8c-9.4,0-41.8,2.8-54.8,2.8s-39,3.7-39,3.7s-6.5-0.9-11.2,0
	c-4.1,0.8-19.8-2-23.4-2.6c-0.8,0.6-0.8-0.1-0.8-0.1s0.3,0.1,0.8,0.1c0.1,0,0.1-0.1,0.2-0.1c0.9-0.9,20.5,0,20.5,0
	s-5.6-1.9-15.8-2.8s-49.3,2.8-54.8,2.8c-3.4,0-20.1-2.1-32.5-3.7H0v174.8h137.3l-3.5-2.8h9.3c0,0,2.8-0.9,1.9,1.9
	c-0.1,0.4-0.1,0.7,0.1,0.9h44.5l17.7-0.9c0,0,82.7-1.9,101.3-1.9c0,0,1.9,0.9-8.4,1.9c-1.5,0.1-3.7,0.5-6.4,0.9h95.3l1.2-1.9h4.6
	c0,0,1.9,0,1.9,0.9H422c0,0,11.2-0.9,14.9-0.9c3.7,0,7.4-1.9,9.3-0.9c1.9,0.9,4.6,1.9,4.6,1.9h-8.4l-18.1,0.9h84.9l12.2-1.9
	c0,0,1.9-0.9,1.9-2.8l4.6-1.3v-32.3l-2.8-1.7c0,0,0-4.6,0-6.5C525.2,126.3,527.1,123.3,528,122.5z"/>
</svg>
