<?xml version="1.0" encoding="utf-8"?>
<!-- Generator: Adobe Illustrator 23.0.1, SVG Export Plug-In . SVG Version: 6.00 Build 0)  -->
<svg version="1.1" id="Livello_1" xmlns="http://www.w3.org/2000/svg" xmlns:xlink="http://www.w3.org/1999/xlink" x="0px" y="0px"
	 viewBox="0 0 36 36" style="enable-background:new 0 0 36 36;" xml:space="preserve">
<style type="text/css">
	.st0{fill:#FFFFFF;}
	.st1{fill:#474747;}
</style>
<g>
	<path class="st0" d="M21.9,35.3c2-0.4,3.9-1.2,5.6-2.3c1.4-1.4,1.9-2,1.9-2l2.1-1.5c2.7-3.1,4.3-7.1,4.3-11.5c0-0.5,0-1-0.1-1.5
		c-0.3-1.2-0.8-2.8-0.8-3.2c0-0.6-1.1-2.8-1.1-2.8V10c-1.1-2.1-2.6-4-4.4-5.6c0.3,0.9,1.1,1.7,1.1,1.7L29.4,5l-0.7-1.2l-2.3-1.4
		c0,0,0,0,0,0C25,2.5,25,1.7,25,1.7c-2.1-0.9-4.5-1.4-7-1.4c-0.9,0-1.8,0.1-2.7,0.2l-0.3,0.6l-0.2-0.5c0,0,0,0,0,0L10.4,2
		c0,0,0,0,0,0c-1.2,1.4-2,1.2-2,1.1C6.6,4.3,5,5.7,3.7,7.4c0,0-1,2-1,2.5c0,0.5-1,1-1.1,1.1c-0.9,2.1-1.4,4.5-1.4,6.9
		c0,0.5,0,1.1,0.1,1.6l0.8,0.9l-0.3,1.9c0,0,0,0,0,0c0.8,3.3,2.6,6.2,5,8.5c0.9,0.5,1.4,0.7,1.4,0.7l1,1.2c0,0,0,0,0,0
		c0.1,0,2.9,1,3.5,1.6c0.1,0.1,0.3,0.2,0.4,0.4c1.5,0.5,3,0.9,4.6,1L21.9,35.3z"/>
	<g>
		<g>
			<g>
				<path class="st1" d="M26,27.2c-0.3,0-0.6-0.1-0.8-0.3L9.2,10.8c-0.4-0.4-0.4-1.1,0-1.6s1.1-0.4,1.6,0l16.1,16.1
					c0.4,0.4,0.4,1.1,0,1.6C26.6,27.1,26.3,27.2,26,27.2z"/>
			</g>
		</g>
		<g>
			<g>
				<path class="st1" d="M10,27.2c-0.3,0-0.6-0.1-0.8-0.3c-0.4-0.4-0.4-1.1,0-1.6L25.3,9.2c0.4-0.4,1.1-0.4,1.6,0s0.4,1.1,0,1.6
					L10.7,26.9C10.5,27.1,10.2,27.2,10,27.2z"/>
			</g>
		</g>
	</g>
</g>
</svg>
