<?xml version="1.0" encoding="utf-8"?>
<!-- Generator: Adobe Illustrator 23.0.1, SVG Export Plug-In . SVG Version: 6.00 Build 0)  -->
<svg version="1.1" id="Livello_1" xmlns="http://www.w3.org/2000/svg" xmlns:xlink="http://www.w3.org/1999/xlink" x="0px" y="0px"
	 viewBox="0 0 100 100" style="enable-background:new 0 0 100 100;" xml:space="preserve">
<style type="text/css">
	.st0{fill:#DAD2D8;}
</style>
<g>
	<g>
		<path class="st0" d="M14.45,73.34c0.06-0.08,0.3-0.41,0.11-0.15c0.25-0.33,0.52-0.65,0.8-0.96c0.89-1.02,1.87-1.98,2.91-2.85
			c2.78-2.33,5.99-3.78,9.61-4.09c4.84-0.42,9.66-2.08,13.51-5.08c4.89-3.81,7.35-9.59,7.37-15.73c0.02-4.61-1.22-9.14-2.5-13.53
			c-1.02-3.51-2.24-6.98-3.76-10.31c-0.97-2.12-2.13-4.11-3.25-6.15c-0.74-1.36-1.21-2.43-1.22-3.83c-0.01-1.75-2.73-1.75-2.72,0
			c0.03,3.26,2.08,5.94,3.54,8.71c1.36,2.58,2.48,5.27,3.43,8.03c1.49,4.29,2.89,8.81,3.51,13.32c0.87,6.31-0.58,12.69-5.56,16.95
			c-3.44,2.94-8.07,4.56-12.54,4.93c-6.28,0.52-11.98,4.28-15.59,9.4C11.09,73.4,13.45,74.76,14.45,73.34L14.45,73.34z"/>
	</g>
	<g>
		<path class="st0" d="M11.42,79.82c2.63,6.88,10.12,11.28,17.06,12.46c9.12,1.55,18.53-0.91,26.95-4.33
			c8.64-3.51,16.65-8.64,22.61-15.9C85.1,63.43,89.11,52.25,89,41.08c-0.01-0.71-0.02-1.44-0.1-2.15
			c-0.51-4.54-1.95-9.23-3.72-13.43c-2.43-5.76-6.31-11.16-12.34-13.45c-4.2-1.6-8.91-1.29-13.15,0.02
			c-2.63,0.81-5.6,1.96-7.82,3.66c-0.12,0.09-0.25,0.17-0.38,0.26c0.55,0.07,1.1,0.14,1.65,0.21c-0.03-0.03-0.09-0.09-0.1-0.13
			c0.06,0.26-0.12-0.16-0.22-0.31c-0.39-0.57-0.76-1.16-1.1-1.77c-1.12-2.02-1.86-4.19-2.31-6.44c-0.35-1.71-2.97-0.99-2.62,0.72
			c0.7,3.49,2.12,7.09,4.43,9.85c0.35,0.42,1.19,0.54,1.65,0.21c4.47-3.2,10.42-5.27,15.96-4.51c4.99,0.68,8.95,4.03,11.57,8.25
			c2.16,3.48,3.55,7.39,4.57,11.34c0.52,2.02,1.14,4.12,1.26,6.21c0.52,9.03-2.16,18.41-6.93,26.03
			c-4.27,6.83-10.39,12.27-17.38,16.2c-8.26,4.64-18.16,8.15-27.73,8.18c-5.36,0.01-10.87-1.3-15.1-4.68
			c-2.26-1.81-3.71-3.64-5-6.16c-0.24-0.48,0.04,0.13-0.05-0.09C13.43,77.47,10.79,78.18,11.42,79.82L11.42,79.82z"/>
	</g>
	<path class="st0" d="M20.49,82.85c0,0-8.7-6.53,0.82-12.51c0,0,4.08-2.18,11.42-2.45S48.23,60,50.14,52.12c0,0,3.26,1.09,5.17-0.54
		c1.9-1.63,5.17,0.54,5.17,0.54s2.72,0.82,4.08-0.27s4.62-0.54,5.44,0s4.9,0,5.17-0.54s5.17-0.54,5.44,0.54
		c0.27,1.09-2.18,20.13-27.2,31.01C53.4,82.85,33.27,89.93,20.49,82.85z"/>
	<circle class="st0" cx="57.89" cy="41.37" r="1.77"/>
	<circle class="st0" cx="73.26" cy="46.67" r="1.9"/>
	<circle class="st0" cx="70.81" cy="32.8" r="2.18"/>
	<circle class="st0" cx="57.89" cy="28.04" r="1.77"/>
</g>
</svg>
