<?xml version="1.0" encoding="utf-8"?>
<!-- Generator: Adobe Illustrator 23.0.1, SVG Export Plug-In . SVG Version: 6.00 Build 0)  -->
<svg version="1.1" id="Livello_1" xmlns="http://www.w3.org/2000/svg" xmlns:xlink="http://www.w3.org/1999/xlink" x="0px" y="0px"
	 viewBox="0 0 24 24" style="enable-background:new 0 0 24 24;" xml:space="preserve">
<style type="text/css">
	.st0{fill:#E47708;}
</style>
<circle class="st0" cx="12" cy="12" r="11.9"/>
<g>
	<g>
		<path d="M13.5,11.3c-0.1,0-0.2-0.1-0.3-0.2c-0.8-1.8,1.8-3.5,2.6-4l-0.7-1.9c-2.3,0.3-4.4,3.2-4.4,3.3c-0.1,0.1-0.2,0.1-0.3,0.1
			c-0.1,0-0.2-0.1-0.2-0.2c-0.2-1.2-1.3-3.3-1.7-4l-2,0.7C6.4,5.2,6.3,5.2,6.2,5c-0.1-0.2,0-0.3,0.2-0.4l2.2-0.8
			c0.1,0,0.3,0,0.3,0.1c0.1,0.1,1.2,2.2,1.7,3.7c0.8-1,2.6-2.9,4.7-3c0.1,0,0.2,0.1,0.3,0.2l0.9,2.3c0.1,0.1,0,0.3-0.1,0.4
			c-0.9,0.5-3.1,2.1-2.6,3.4c0.1,0.1,0,0.3-0.2,0.4C13.6,11.3,13.6,11.3,13.5,11.3z"/>
	</g>
	<g>
		<path d="M13.5,21c-3.3,0-5-1.6-5.9-3c-1.4-2.1-1.5-5-0.8-6.5C7.8,9.6,6,6.5,6,6.5c-0.1-0.1,0-0.3,0.1-0.4C6.2,6,6.4,6,6.5,6.2
			c0.1,0.1,2,3.4,0.9,5.7c-0.5,1.1-0.6,3.8,0.8,5.9c1.1,1.8,3,2.7,5.4,2.7c1.9,0,3.2-0.8,3.7-2.4c1-2.9-0.7-7.3-2.3-8.6
			c-0.1-0.1-0.1-0.3-0.1-0.4C15,8.9,15.1,8.9,15.3,9c1.8,1.4,3.6,6.1,2.5,9.2C17.3,19.5,16.2,21,13.5,21z"/>
	</g>
	<g>
		<path d="M10,5.6c-0.1,0-0.2-0.1-0.3-0.2C9.7,5.3,9.7,5.1,9.9,5l0.3-0.2C10,4.4,9.8,3.5,10.4,3.2c0.2-0.1,0.5-0.2,0.8-0.1
			c0.3,0.2,0.4,0.6,0.5,1c0,0,0,0.1,0,0.1c0.1,0,0.2-0.1,0.3-0.2c0.1-0.3,0.8-1.3,1.5-1c0.4,0.2,0.5,0.4,0.5,0.6c0,0.1,0,0.2,0,0.3
			c0.3-0.1,0.6-0.1,0.8,0c0.1,0.1,0.2,0.2,0.2,0.4c0,0.2-0.1,0.3-0.3,0.3c-0.1,0-0.3-0.1-0.3-0.2c-0.2,0-0.7,0.1-1.2,0.3
			c-0.1,0.1-0.3,0-0.4-0.1c-0.1-0.1,0-0.3,0.1-0.4c0.4-0.3,0.5-0.5,0.5-0.7c0,0,0-0.1-0.2-0.2c-0.2-0.1-0.6,0.4-0.8,0.7
			c0,0,0,0.1-0.1,0.1c-0.1,0.1-0.5,0.5-0.9,0.4c-0.1,0-0.3-0.2-0.4-0.5C11.1,3.7,11,3.6,11,3.6c0,0-0.1,0-0.3,0.1
			c-0.2,0.1-0.1,0.8,0.1,1.2c0.1,0.1,0,0.3-0.1,0.4l-0.6,0.3C10.1,5.6,10,5.6,10,5.6z"/>
	</g>
	<g>
		<path d="M13.2,20.6c-0.1,0-0.1,0-0.2-0.1c-0.1-0.1-2.6-2.6-2.3-4.6c0.1-0.4,0.1-0.8,0.2-1.2c0.2-1.3,0.4-2.3-0.1-2.8
			c-0.1-0.1-0.1-0.3,0-0.4c0.1-0.1,0.3-0.1,0.4,0c0.8,0.7,0.6,1.9,0.3,3.3c-0.1,0.4-0.1,0.8-0.2,1.2c-0.3,1.7,2.1,4.1,2.1,4.1
			c0.1,0.1,0.1,0.3,0,0.4C13.3,20.6,13.3,20.6,13.2,20.6z"/>
	</g>
	<g>
		<path d="M11,15.6c0,0-0.1,0-0.1,0c0,0-1-0.5-1.4-1.4c-0.4-0.9-0.6-1-1.1-0.9c-0.2,0-0.3-0.1-0.3-0.2c0-0.2,0.1-0.3,0.2-0.3
			c1-0.2,1.4,0.4,1.8,1.2c0.4,0.8,1.2,1.2,1.2,1.2c0.1,0.1,0.2,0.2,0.1,0.4C11.2,15.6,11.1,15.6,11,15.6z"/>
	</g>
	<g>
		<path d="M8.5,15.1c0,0-0.1,0-0.1,0c-0.1-0.1-0.2-0.2-0.1-0.4c0.4-0.7,1.4-0.7,1.4-0.7c0.2,0,0.3,0.1,0.3,0.3
			c0,0.2-0.1,0.3-0.3,0.3l0,0c0,0-0.7,0-0.9,0.4C8.7,15,8.6,15.1,8.5,15.1z"/>
	</g>
	<g>
		<path d="M11.2,17.7c-0.1,0-0.3-0.1-0.3-0.3c0-0.2,0.1-0.3,0.3-0.3c0,0,1.5-0.2,1.9-1.1c0.1-0.2,0.1-0.3,0.2-0.4
			c0.3-0.7,0.5-1.2,1.5-1.5c0.2,0,0.3,0,0.4,0.2c0,0.2,0,0.3-0.2,0.4c-0.7,0.2-0.8,0.4-1.1,1.1c-0.1,0.1-0.1,0.3-0.2,0.5
			C13.1,17.5,11.4,17.7,11.2,17.7C11.3,17.7,11.3,17.7,11.2,17.7z"/>
	</g>
	<g>
		<path d="M13.6,17.1c-0.5,0-0.7-0.1-0.7-0.2l0.4-0.4c0,0,0,0,0,0c0,0,0.3,0.2,1.2-0.1c0.2,0,0.3,0.1,0.4,0.2c0,0.2-0.1,0.3-0.2,0.4
			C14.1,17,13.8,17.1,13.6,17.1z"/>
	</g>
	<g>
		<path d="M13.5,16c-0.1,0-0.2,0-0.2-0.1c-0.1-0.1-0.7-1.1-0.4-1.8c0.1-0.1,0.2-0.2,0.4-0.1c0.1,0.1,0.2,0.2,0.1,0.4
			c-0.2,0.3,0.2,1,0.3,1.3c0.1,0.1,0.1,0.3-0.1,0.4C13.7,16,13.6,16,13.5,16z"/>
	</g>
</g>
</svg>
