<?xml version="1.0" encoding="utf-8"?>
<!-- Generator: Adobe Illustrator 23.0.1, SVG Export Plug-In . SVG Version: 6.00 Build 0)  -->
<svg version="1.1" id="Livello_1" xmlns="http://www.w3.org/2000/svg" xmlns:xlink="http://www.w3.org/1999/xlink" x="0px" y="0px"
	 viewBox="0 0 37 54" style="enable-background:new 0 0 37 54;" xml:space="preserve">
<style type="text/css">
	.st0{fill:#A8A3A3;}
</style>
<g>
	<g>
		<path class="st0" d="M23.3,25.32c-0.33,0-0.64-0.19-0.77-0.51c-2.17-5.07,5.27-10.1,7.55-11.49l-2.12-5.45
			c-6.7,0.81-12.66,9.37-12.72,9.46c-0.19,0.28-0.54,0.42-0.87,0.34c-0.33-0.07-0.59-0.34-0.65-0.68c-0.59-3.57-3.73-9.49-4.78-11.4
			l-5.66,2C2.84,7.73,2.36,7.5,2.21,7.07C2.05,6.63,2.28,6.15,2.72,6l6.33-2.23c0.38-0.14,0.81,0.02,1.01,0.38
			c0.16,0.29,3.55,6.24,4.89,10.78c2.22-2.76,7.51-8.48,13.52-8.78c0.36-0.01,0.69,0.2,0.82,0.53l2.61,6.7
			c0.15,0.39-0.01,0.83-0.37,1.04c-2.61,1.45-9.04,6.04-7.46,9.74c0.18,0.43-0.01,0.92-0.44,1.1C23.52,25.3,23.41,25.32,23.3,25.32z
			"/>
	</g>
	<g>
		<path class="st0" d="M23.15,53.24c-9.51,0-14.46-4.65-16.94-8.55c-3.92-6.16-4.24-14.48-2.29-18.67
			c2.71-5.82-2.43-14.66-2.48-14.75c-0.24-0.4-0.1-0.91,0.3-1.15c0.4-0.24,0.91-0.1,1.15,0.3c0.23,0.39,5.65,9.69,2.56,16.31
			C3.9,30.03,3.8,37.8,7.62,43.79c3.24,5.08,8.61,7.77,15.53,7.77c5.55,0,9.15-2.32,10.72-6.89c2.88-8.4-2.02-21.19-6.62-24.77
			c-0.37-0.28-0.43-0.81-0.15-1.18c0.28-0.37,0.81-0.43,1.18-0.15c5.09,3.96,10.32,17.46,7.18,26.64
			C34.2,48.88,31.04,53.24,23.15,53.24z"/>
	</g>
	<g>
		<path class="st0" d="M13.07,8.75c-0.31,0-0.6-0.17-0.75-0.46c-0.21-0.41-0.04-0.92,0.38-1.13l0.99-0.5
			c-0.47-1.35-1.14-4.05,0.69-4.96c0.57-0.29,1.43-0.62,2.23-0.23c0.93,0.45,1.23,1.64,1.49,2.92c0.03,0.13,0.05,0.21,0.08,0.25
			c0.21-0.04,0.62-0.31,0.94-0.6c0.41-0.78,2.22-3.86,4.41-2.76c1.04,0.52,1.32,1.28,1.37,1.82c0.03,0.31-0.01,0.64-0.12,0.96
			c0.91-0.2,1.8-0.24,2.36,0.12c0.41,0.27,0.64,0.69,0.64,1.21c0,0.46-0.38,0.84-0.84,0.84c-0.4,0-0.73-0.28-0.82-0.65
			c-0.56-0.05-2.1,0.39-3.45,1c-0.39,0.18-0.85,0.03-1.07-0.34c-0.22-0.37-0.12-0.84,0.22-1.1c1.02-0.77,1.45-1.52,1.42-1.89
			C23.21,3.19,23.2,3,22.77,2.78c-0.62-0.31-1.76,1.21-2.23,2.14c-0.04,0.08-0.09,0.15-0.16,0.22c-0.35,0.35-1.58,1.46-2.74,1.11
			c-0.43-0.13-0.99-0.5-1.2-1.54c-0.29-1.46-0.5-1.7-0.58-1.74c0,0-0.18-0.05-0.74,0.23c-0.59,0.3-0.17,2.25,0.39,3.53
			c0.18,0.41,0.01,0.89-0.39,1.09l-1.68,0.84C13.33,8.72,13.2,8.75,13.07,8.75z"/>
	</g>
	<g>
		<path class="st0" d="M22.31,51.98c-0.21,0-0.43-0.08-0.59-0.25c-0.3-0.3-7.43-7.5-6.53-13.31c0.18-1.17,0.4-2.3,0.61-3.38
			c0.72-3.73,1.29-6.68-0.31-8.02c-0.36-0.3-0.4-0.83-0.11-1.18c0.3-0.36,0.83-0.4,1.18-0.11c2.36,1.97,1.68,5.52,0.89,9.63
			c-0.21,1.07-0.42,2.17-0.6,3.32c-0.77,4.98,5.99,11.8,6.06,11.87c0.33,0.33,0.33,0.86,0,1.19C22.74,51.9,22.52,51.98,22.31,51.98z
			"/>
	</g>
	<g>
		<path class="st0" d="M16.01,37.71c-0.13,0-0.25-0.03-0.37-0.09c-0.11-0.06-2.78-1.42-4.15-4.15c-1.25-2.5-1.82-2.78-3.28-2.49
			c-0.45,0.09-0.9-0.2-0.99-0.66c-0.09-0.45,0.2-0.9,0.66-0.99c2.88-0.58,3.98,1.12,5.11,3.39c1.12,2.24,3.38,3.39,3.4,3.4
			c0.41,0.21,0.58,0.71,0.38,1.13C16.61,37.54,16.32,37.71,16.01,37.71z"/>
	</g>
	<g>
		<path class="st0" d="M8.87,36.03c-0.13,0-0.25-0.03-0.37-0.09c-0.41-0.21-0.58-0.71-0.38-1.13c1.06-2.12,3.98-2.14,4.11-2.14
			c0.46,0,0.84,0.38,0.84,0.84c0,0.46-0.37,0.84-0.84,0.84l0,0c-0.02,0-2.03,0.05-2.61,1.21C9.48,35.86,9.18,36.03,8.87,36.03z"/>
	</g>
	<g>
		<path class="st0" d="M16.69,43.79c-0.42,0-0.78-0.31-0.83-0.73c-0.06-0.46,0.26-0.88,0.72-0.94c0.07-0.01,4.32-0.61,5.37-3.06
			c0.2-0.46,0.37-0.89,0.52-1.27c0.82-2.06,1.36-3.43,4.22-4.24c0.45-0.13,0.91,0.13,1.04,0.58c0.13,0.45-0.13,0.91-0.58,1.04
			c-2.07,0.59-2.33,1.26-3.12,3.25c-0.16,0.4-0.33,0.83-0.54,1.31c-1.43,3.34-6.48,4.04-6.69,4.06
			C16.77,43.79,16.73,43.79,16.69,43.79z"/>
	</g>
	<g>
		<path class="st0" d="M23.39,41.88c-1.35,0-1.94-0.37-2.13-0.54l1.09-1.28c0,0-0.02-0.02-0.05-0.04c0.01,0.01,0.86,0.49,3.58-0.19
			c0.45-0.11,0.91,0.16,1.02,0.61c0.11,0.45-0.16,0.91-0.61,1.02C25.06,41.77,24.11,41.88,23.39,41.88z"/>
	</g>
	<g>
		<path class="st0" d="M23.31,38.8c-0.27,0-0.54-0.13-0.7-0.37c-0.22-0.32-2.08-3.23-1.05-5.29c0.21-0.41,0.71-0.58,1.13-0.38
			c0.41,0.21,0.58,0.71,0.38,1.13c-0.47,0.94,0.44,2.84,0.95,3.61c0.26,0.39,0.15,0.91-0.23,1.16C23.63,38.75,23.47,38.8,23.31,38.8
			z"/>
	</g>
</g>
</svg>
