<?xml version="1.0" encoding="utf-8"?>
<!-- Generator: Adobe Illustrator 23.0.1, SVG Export Plug-In . SVG Version: 6.00 Build 0)  -->
<svg version="1.1" id="Livello_1" xmlns="http://www.w3.org/2000/svg" xmlns:xlink="http://www.w3.org/1999/xlink" x="0px" y="0px"
	 viewBox="0 0 24 24" style="enable-background:new 0 0 24 24;" xml:space="preserve">
<style type="text/css">
	.st0{fill:#E47708;}
</style>
<g>
	<circle class="st0" cx="12" cy="12" r="11.9"/>
	<g>
		<g>
			<path d="M5.8,16.1C5.8,16.1,5.9,16,5.8,16.1C5.9,16,5.9,16,6,15.9c0.2-0.2,0.3-0.3,0.5-0.5c0.5-0.4,1-0.7,1.7-0.7
				c0.8-0.1,1.7-0.4,2.3-0.9c0.8-0.7,1.3-1.7,1.3-2.7c0-0.8-0.2-1.6-0.4-2.3c-0.2-0.6-0.4-1.2-0.7-1.8c-0.2-0.4-0.4-0.7-0.6-1.1
				C10,5.7,9.9,5.5,9.9,5.2c0-0.3-0.5-0.3-0.5,0c0,0.6,0.4,1,0.6,1.5c0.2,0.4,0.4,0.9,0.6,1.4c0.3,0.7,0.5,1.5,0.6,2.3
				c0.2,1.1-0.1,2.2-1,2.9c-0.6,0.5-1.4,0.8-2.2,0.9C7,14.3,6,15,5.4,15.9C5.2,16.1,5.6,16.4,5.8,16.1L5.8,16.1z"/>
		</g>
		<g>
			<path d="M5.3,17.2c0.5,1.2,1.8,2,3,2.2c1.6,0.3,3.2-0.2,4.7-0.8c1.5-0.6,2.9-1.5,3.9-2.8c1.2-1.5,1.9-3.4,1.9-5.4
				c0-0.1,0-0.2,0-0.4c-0.1-0.8-0.3-1.6-0.6-2.3c-0.4-1-1.1-1.9-2.1-2.3c-0.7-0.3-1.5-0.2-2.3,0c-0.5,0.1-1,0.3-1.4,0.6
				c0,0,0,0-0.1,0c0.1,0,0.2,0,0.3,0c0,0,0,0,0,0c0,0,0,0,0-0.1c-0.1-0.1-0.1-0.2-0.2-0.3c-0.2-0.4-0.3-0.7-0.4-1.1
				c-0.1-0.3-0.5-0.2-0.5,0.1c0.1,0.6,0.4,1.2,0.8,1.7c0.1,0.1,0.2,0.1,0.3,0c0.8-0.6,1.8-0.9,2.8-0.8c0.9,0.1,1.6,0.7,2,1.4
				c0.4,0.6,0.6,1.3,0.8,2c0.1,0.4,0.2,0.7,0.2,1.1c0.1,1.6-0.4,3.2-1.2,4.5c-0.7,1.2-1.8,2.1-3,2.8c-1.4,0.8-3.2,1.4-4.8,1.4
				c-0.9,0-1.9-0.2-2.6-0.8c-0.4-0.3-0.6-0.6-0.9-1.1c0-0.1,0,0,0,0C5.6,16.8,5.2,16.9,5.3,17.2L5.3,17.2z"/>
		</g>
		<path d="M6.9,17.8c0,0-1.5-1.1,0.1-2.2c0,0,0.7-0.4,2-0.4s2.7-1.4,3-2.7c0,0,0.6,0.2,0.9-0.1c0.3-0.3,0.9,0.1,0.9,0.1
			s0.5,0.1,0.7,0c0.2-0.2,0.8-0.1,0.9,0c0.1,0.1,0.9,0,0.9-0.1s0.9-0.1,0.9,0.1c0,0.2-0.4,3.5-4.7,5.4C12.6,17.8,9.1,19,6.9,17.8z"
			/>
		<circle cx="13.3" cy="10.6" r="0.3"/>
		<circle cx="16" cy="11.5" r="0.3"/>
		<circle cx="15.6" cy="9.1" r="0.4"/>
		<circle cx="13.3" cy="8.2" r="0.3"/>
	</g>
</g>
</svg>
