<?xml version="1.0" encoding="utf-8"?>
<!-- Generator: Adobe Illustrator 23.0.1, SVG Export Plug-In . SVG Version: 6.00 Build 0)  -->
<svg version="1.1" id="Livello_1" xmlns="http://www.w3.org/2000/svg" xmlns:xlink="http://www.w3.org/1999/xlink" x="0px" y="0px"
	 viewBox="0 0 24 24" style="enable-background:new 0 0 24 24;" xml:space="preserve">
<style type="text/css">
	.st0{fill:#E47708;}
</style>
<g>
	<circle class="st0" cx="12" cy="12" r="11.9"/>
	<g>
		<g>
			<g>
				<path d="M12,19.5c-4.1,0-7.5-3.4-7.5-7.5S7.9,4.5,12,4.5s7.5,3.4,7.5,7.5S16.1,19.5,12,19.5z M12,5.3c-3.7,0-6.8,3-6.8,6.8
					s3,6.8,6.8,6.8s6.8-3,6.8-6.8S15.7,5.3,12,5.3z"/>
			</g>
		</g>
		<g>
			<g>
				<circle cx="9.4" cy="10.1" r="1"/>
			</g>
		</g>
		<g>
			<g>
				<circle cx="13.9" cy="10.1" r="0.8"/>
			</g>
		</g>
		<g>
			<g>
				<path d="M14.9,14.6h-6c-0.2,0-0.4-0.2-0.4-0.4c0-0.2,0.2-0.4,0.4-0.4h6c0.2,0,0.4,0.2,0.4,0.4C15.3,14.4,15.1,14.6,14.9,14.6z"
					/>
			</g>
		</g>
	</g>
</g>
</svg>
