<?xml version="1.0" encoding="utf-8"?>
<!-- Generator: Adobe Illustrator 23.0.1, SVG Export Plug-In . SVG Version: 6.00 Build 0)  -->
<svg version="1.1" id="Livello_1" xmlns="http://www.w3.org/2000/svg" xmlns:xlink="http://www.w3.org/1999/xlink" x="0px" y="0px"
	 viewBox="0 0 45 44" style="enable-background:new 0 0 45 44;" xml:space="preserve">
<style type="text/css">
	.st0{fill:#A8A3A3;}
</style>
<g>
	<g>
		<path class="st0" d="M22.62,43.75c-11.94,0-21.66-9.71-21.66-21.66S10.67,0.43,22.62,0.43s21.66,9.71,21.66,21.66
			S34.56,43.75,22.62,43.75z M22.62,2.6c-10.75,0-19.49,8.74-19.49,19.49s8.74,19.49,19.49,19.49s19.49-8.74,19.49-19.49
			S33.36,2.6,22.62,2.6z"/>
	</g>
	<g>
		<circle class="st0" cx="15.25" cy="16.46" r="3.03"/>
	</g>
	<g>
		<circle class="st0" cx="28.25" cy="16.46" r="2.17"/>
	</g>
	<g>
		<path class="st0" d="M31.06,29.45H13.74c-0.6,0-1.08-0.48-1.08-1.08c0-0.6,0.48-1.08,1.08-1.08h17.33c0.6,0,1.08,0.48,1.08,1.08
			C32.14,28.97,31.66,29.45,31.06,29.45z"/>
	</g>
</g>
</svg>
