<?xml version="1.0" encoding="utf-8"?>
<!-- Generator: Adobe Illustrator 23.0.1, SVG Export Plug-In . SVG Version: 6.00 Build 0)  -->
<svg version="1.1" id="Livello_1" xmlns="http://www.w3.org/2000/svg" xmlns:xlink="http://www.w3.org/1999/xlink" x="0px" y="0px"
	 viewBox="0 0 66 64" style="enable-background:new 0 0 66 64;" xml:space="preserve">
<style type="text/css">
	.st0{fill:#A8A3A3;}
	.st1{fill:none;stroke:#A8A3A3;stroke-width:2;stroke-miterlimit:10;}
</style>
<g>
	<g>
		<path class="st0" d="M53.41,20.39c0.13,0.74-0.13,1.44-0.76,1.78c-0.71,0.39-1.43,0.75-2.16,1.1c-0.12,0.06-0.35,0-0.48-0.08
			c-0.56-0.37-1.1-0.76-1.63-1.16c-0.13-0.1-0.26-0.27-0.28-0.42c-0.08-0.69-0.15-1.39-0.17-2.09c-0.03-1.14,1.14-1.88,2.16-1.35
			c0.88,0.46,1.75,0.95,2.6,1.47C52.98,19.81,53.17,20.13,53.41,20.39z"/>
		<path class="st0" d="M10.2,32.61c0.08-0.35,0.09-0.74,0.24-1.06c0.43-0.86,0.91-1.7,1.41-2.52c0.63-1.06,2.01-1.03,2.61,0.05
			c0.27,0.49,0.54,0.98,0.76,1.49c0.07,0.16,0.03,0.41-0.04,0.59c-0.26,0.7-0.54,1.38-0.83,2.07c-0.06,0.14-0.21,0.32-0.33,0.33
			c-0.74,0.08-1.48,0.14-2.23,0.17C11.08,33.76,10.49,33.31,10.2,32.61z"/>
		<path class="st0" d="M50.36,26.42c-0.87-2.33-2.69-3.53-5.14-3.72c-1.76-0.14-3.27,0.51-4.52,1.74c-2.96,2.9-6.5,4.61-10.6,5.17
			c-2.33,0.32-4.63,0.18-6.9-0.39c-1.53-0.39-3-0.27-4.39,0.49c-2.19,1.2-3.35,3.45-3.04,5.93c0.28,2.33,1.96,4.21,4.35,4.83
			c5.24,1.36,10.47,1.27,16.2-0.28c0.51-0.18,1.51-0.51,2.5-0.89c3.9-1.52,7.32-3.77,10.26-6.75C50.79,30.79,51.2,28.68,50.36,26.42
			z M45.34,27.66c-1.83,2.03-3.95,3.69-6.36,4.99c-1.54,0.83-3.16,1.48-4.84,1.95c-4.48,1.23-8.95,1.18-13.4-0.18
			c-0.41-0.12-0.75-0.31-0.92-0.72c-0.25-0.6,0.06-1.26,0.71-1.51c0.62-0.24,1.24-0.25,1.88-0.09c3.98,1.01,7.93,0.87,11.84-0.37
			c3.2-1.02,6-2.71,8.42-5.03c0.41-0.39,0.95-0.7,1.48-0.92c0.6-0.25,1.12-0.02,1.41,0.48C45.83,26.69,45.76,27.2,45.34,27.66z"/>
	</g>
	<polyline class="st1" points="65,30 65,1 36,1 	"/>
	<polyline class="st1" points="36,63 65,63 65,34 	"/>
	<polyline class="st1" points="1,30 1,1 30,1 	"/>
	<polyline class="st1" points="30,63 1,63 1,34 	"/>
</g>
</svg>
