<?xml version="1.0" encoding="utf-8"?>
<!-- Generator: Adobe Illustrator 23.0.1, SVG Export Plug-In . SVG Version: 6.00 Build 0)  -->
<svg version="1.1" id="Livello_1" xmlns="http://www.w3.org/2000/svg" xmlns:xlink="http://www.w3.org/1999/xlink" x="0px" y="0px"
	 viewBox="0 0 66 64" style="enable-background:new 0 0 66 64;" xml:space="preserve">
<style type="text/css">
	.st0{fill:#A8A3A3;}
	.st1{fill:none;stroke:#A8A3A3;stroke-width:2;stroke-miterlimit:10;}
</style>
<g>
	<g>
		<g>
			<path class="st0" d="M32.5,47c0-0.7,0-1,0-1.3c0-7.4,0-14.8,0-22.2c0-0.6,0.2-1.3,0.6-1.8c3.7-4.9,8.6-7.7,14.6-8.5
				c0.2,0,0.4,0,0.7,0c0.1,0,0.2,0,0.4,0.1c0,8.5,0,17,0,25.6C42.4,39.3,37,41.9,32.5,47z"/>
		</g>
		<g>
			<path class="st0" d="M30.5,46.8c-4.4-4.9-9.8-7.6-16.2-8.1c0-8.5,0-17,0-25.7c1.1,0.2,2.2,0.3,3.2,0.5c5.2,1.2,9.4,4,12.6,8.2
				c0.3,0.4,0.5,0.9,0.5,1.4c0,7.7,0,15.3,0,23C30.5,46.3,30.5,46.5,30.5,46.8z"/>
		</g>
		<g>
			<path class="st0" d="M27.1,46.2c-2.9-0.4-5.7-1.1-8.6-1.2c-2.8-0.1-5.7,0.3-8.5,0.5c0-8.5,0-17.2,0-26c0.6-0.2,1.2-0.4,2.1-0.7
				c0,0.9,0,1.7,0,2.4c0,5.8,0,11.6,0,17.4c0,2,0,2,2,2.2c4.6,0.3,8.7,1.9,12.3,5C26.7,45.9,27,46.1,27.1,46.2z"/>
		</g>
		<g>
			<path class="st0" d="M50.8,18.8c0.8,0.2,1.5,0.4,2.1,0.6c0,8.8,0,17.5,0,26c-2.9-0.2-5.8-0.6-8.7-0.5c-2.8,0.1-5.6,0.9-8.3,1.3
				c0,0,0.2-0.2,0.5-0.4c0.3-0.2,0.5-0.4,0.8-0.7c3.4-2.7,7.3-4.2,11.7-4.4c1.8-0.1,1.9-0.2,1.9-1.9c0-6.2,0-12.4,0-18.6
				C50.8,19.8,50.8,19.4,50.8,18.8z"/>
		</g>
	</g>
	<polyline class="st1" points="65,30 65,1 36,1 	"/>
	<polyline class="st1" points="36,63 65,63 65,34 	"/>
	<polyline class="st1" points="1,30 1,1 30,1 	"/>
	<polyline class="st1" points="30,63 1,63 1,34 	"/>
</g>
</svg>
