<?xml version="1.0" encoding="utf-8"?>
<!-- Generator: Adobe Illustrator 23.0.1, SVG Export Plug-In . SVG Version: 6.00 Build 0)  -->
<svg version="1.1" id="Livello_1" xmlns="http://www.w3.org/2000/svg" xmlns:xlink="http://www.w3.org/1999/xlink" x="0px" y="0px"
	 viewBox="0 0 366 365" style="enable-background:new 0 0 366 365;" xml:space="preserve">
<g>
	<polygon points="1,57.5 3,190.5 4,92.5 	"/>
	<path d="M26,363.5l12-3h18l14.3,3H112v-4h3l6.4,4H174v-2h6l19.4,2h55.9l3.6-3h7l8.3,3h69.8l15.8-1l3-3l2-5.2V233.1l-4-10.6v-9l2-4
		v-4l-2-11l4-178.2V5.5c-2-3-12.2-4-12.2-4l-80.8,3l-12-2h-43v2h-2l-5-2l-62.6-1l-2.4,3h-2l-2-2l-63.2-1L46,3.5l13.3-2H8.6
		c-1.4,0-3.6,3-3.6,3l-2,25v22.8l2,43.2v16l3,2v3l-3,2v83l-2-7v41.3l3,1.7v6l-1,5c0,0,1,31,1,36s-3,68.8-3,68.8s0,2.2,2,5.2
		s7.6,5,7.6,5H26z"/>
	<polygon points="33,363.5 39,361.5 53,361.5 67.5,363.5 	"/>
</g>
</svg>
