<?xml version="1.0" encoding="utf-8"?>
<!-- Generator: Adobe Illustrator 23.0.1, SVG Export Plug-In . SVG Version: 6.00 Build 0)  -->
<svg version="1.1" id="Livello_1" xmlns="http://www.w3.org/2000/svg" xmlns:xlink="http://www.w3.org/1999/xlink" x="0px" y="0px"
	 viewBox="0 0 145 46" style="enable-background:new 0 0 145 46;" xml:space="preserve">
<style type="text/css">
	.st0{fill:#474747;}
	.st1{fill:#FFFFFF;}
</style>
<g>
	<rect x="-0.01" y="3.51" class="st0" width="145.01" height="42.76"/>
	<path class="st1" d="M143.61,0.95c-0.09-0.14-0.23-0.23-0.23-0.23h-29.75l-7.44,0.93l-3.01-0.93H92.25l-1.86,0.93l-3.27-0.93h-9.74
		l-1.86,0.93h-0.93V0.73H63.31H56l-1.86,0.93l-2.1-0.93h-1.62H23.34L40.2,1.65c-2.79,0-7.44,0-9.3,0c-1.86,0-21.28-0.93-21.28-0.93
		H2.85c-0.7,0-1.19,0.75-1.46,1.3v5.85L1.15,9.09l0.93,1.86v0.93v10.23v6.51v3.72l-0.7,3.72v5.19c0,0,1.61,1.53,2.55,1.43
		c0.94-0.11,13.95-1.04,13.95-1.04h11.15l-16.57,1.04h43.32l-0.72-1.04H56l0.93,0.93c0,0,0.89,0.07,1.84,0.11h1.92
		c0.89-0.11,16.7-1.04,19.48-0.11l0.75,0.11h16.45l1.39-0.11l0.93-0.93h1.86l-1.86,0.93l0.32,0.11h22.81l0.11-0.11h0.93l2.79-0.93
		l-1.86,1.04h18.17l0.42-0.11l0.23-0.46v-2.95l-0.23-0.31v-0.93h0.23v-1.48l-0.23-0.38v-0.93l0.23-0.23v-3.47l-0.23-0.02v-0.93
		l0.23-0.38v-1.55l-0.23-0.86v-0.93l0.23-2.61v-8.32l-0.23,1.63l0.23-5.25V7.1l-0.23-0.8l0.23-0.29V1.88
		c-0.04-0.27-0.05-0.48,0-0.55V0.95z"/>
</g>
</svg>
