<?xml version="1.0" encoding="utf-8"?>
<!-- Generator: Adobe Illustrator 23.0.1, SVG Export Plug-In . SVG Version: 6.00 Build 0)  -->
<svg version="1.1" id="Livello_1" xmlns="http://www.w3.org/2000/svg" xmlns:xlink="http://www.w3.org/1999/xlink" x="0px" y="0px"
	 viewBox="0 0 100 100" style="enable-background:new 0 0 100 100;" xml:space="preserve">
<style type="text/css">
	.st0{fill:#DAD2D8;}
</style>
<g>
	<path class="st0" d="M88.28,29.71c-6.5,0.02-13,0.03-19.51,0.05c0.46,0.46,0.92,0.92,1.38,1.38c-0.02-6.5-0.03-13-0.05-19.51
		c0-0.75-0.63-1.39-1.38-1.38c-10.98,0.03-21.96,0.05-32.94,0.08c-1.56,0-3.12,0.01-4.69,0.01c-0.75,0-1.39,0.63-1.38,1.38
		c0.02,6.5,0.03,13,0.05,19.51c0.46-0.46,0.92-0.92,1.38-1.38c-6.5,0.02-13,0.03-19.51,0.05c-0.75,0-1.39,0.63-1.38,1.38
		c0.03,10.98,0.05,21.96,0.08,32.94c0,1.56,0.01,3.12,0.01,4.69c0,0.75,0.63,1.39,1.38,1.38c6.5-0.02,13-0.03,19.51-0.05
		c-0.46-0.46-0.92-0.92-1.38-1.38c0.02,6.5,0.03,13,0.05,19.51c0,0.75,0.63,1.39,1.38,1.38c11-0.03,21.99-0.05,32.99-0.08
		c1.55,0,3.1-0.01,4.64-0.01c0.75,0,1.39-0.63,1.38-1.38c-0.02-6.5-0.03-13-0.05-19.51c-0.46,0.46-0.92,0.92-1.38,1.38
		c6.5-0.02,13-0.03,19.51-0.05c0.75,0,1.39-0.63,1.38-1.38c-0.03-10.98-0.05-21.96-0.08-32.94c0-1.56-0.01-3.12-0.01-4.69
		c0-1.78-2.77-1.78-2.77,0c0.03,10.98,0.05,21.96,0.08,32.94c0,1.56,0.01,3.12,0.01,4.69c0.46-0.46,0.92-0.92,1.38-1.38
		c-6.5,0.02-13,0.03-19.51,0.05c-0.75,0-1.39,0.63-1.38,1.38c0.02,6.5,0.03,13,0.05,19.51c0.46-0.46,0.92-0.92,1.38-1.38
		c-11,0.03-21.99,0.05-32.99,0.08c-1.55,0-3.1,0.01-4.64,0.01c0.46,0.46,0.92,0.92,1.38,1.38c-0.02-6.5-0.03-13-0.05-19.51
		c0-0.75-0.63-1.39-1.38-1.38c-6.5,0.02-13,0.03-19.51,0.05c0.46,0.46,0.92,0.92,1.38,1.38c-0.03-10.98-0.05-21.96-0.08-32.94
		c0-1.56-0.01-3.12-0.01-4.69c-0.46,0.46-0.92,0.92-1.38,1.38c6.5-0.02,13-0.03,19.51-0.05c0.75,0,1.39-0.63,1.38-1.38
		c-0.02-6.5-0.03-13-0.05-19.51c-0.46,0.46-0.92,0.92-1.38,1.38c10.98-0.03,21.96-0.05,32.94-0.08c1.56,0,3.12-0.01,4.69-0.01
		c-0.46-0.46-0.92-0.92-1.38-1.38c0.02,6.5,0.03,13,0.05,19.51c0,0.75,0.63,1.39,1.38,1.38c6.5-0.02,13-0.03,19.51-0.05
		C90.06,32.47,90.06,29.7,88.28,29.71z"/>
</g>
</svg>
