<?xml version="1.0" encoding="utf-8"?>
<!-- Generator: Adobe Illustrator 23.0.1, SVG Export Plug-In . SVG Version: 6.00 Build 0)  -->
<svg version="1.1" id="Livello_1" xmlns="http://www.w3.org/2000/svg" xmlns:xlink="http://www.w3.org/1999/xlink" x="0px" y="0px"
	 viewBox="0 0 44 48" style="enable-background:new 0 0 44 48;" xml:space="preserve">
<style type="text/css">
	.st0{fill:#A8A3A3;}
</style>
<g>
	<g>
		<path class="st0" d="M2.64,36.62c0.03-0.04,0.16-0.22,0.06-0.08c0.14-0.18,0.28-0.35,0.43-0.52c0.48-0.55,1.01-1.07,1.58-1.54
			c1.51-1.26,3.25-2.05,5.21-2.22c2.62-0.23,5.23-1.13,7.32-2.75c2.65-2.06,3.98-5.2,3.99-8.52c0.01-2.5-0.66-4.95-1.35-7.33
			c-0.55-1.9-1.21-3.78-2.04-5.59c-0.53-1.15-1.15-2.23-1.76-3.33c-0.4-0.74-0.66-1.32-0.66-2.07c-0.01-0.95-1.48-0.95-1.47,0
			c0.02,1.77,1.13,3.22,1.92,4.72c0.74,1.4,1.34,2.86,1.86,4.35c0.81,2.32,1.57,4.77,1.9,7.22c0.47,3.42-0.31,6.88-3.01,9.18
			c-1.86,1.59-4.37,2.47-6.79,2.67c-3.4,0.28-6.49,2.32-8.45,5.09C0.82,36.65,2.1,37.39,2.64,36.62L2.64,36.62z"/>
	</g>
	<g>
		<path class="st0" d="M1,40.13c1.42,3.73,5.48,6.11,9.24,6.75c4.94,0.84,10.04-0.49,14.6-2.35c4.68-1.9,9.02-4.68,12.25-8.61
			c3.82-4.67,6-10.73,5.94-16.78c-0.01-0.38-0.01-0.78-0.05-1.16c-0.28-2.46-1.06-5-2.02-7.28c-1.32-3.12-3.42-6.05-6.69-7.29
			c-2.28-0.87-4.83-0.7-7.12,0.01c-1.42,0.44-3.03,1.06-4.24,1.98c-0.07,0.05-0.14,0.09-0.21,0.14c0.3,0.04,0.6,0.08,0.89,0.11
			c-0.02-0.02-0.05-0.05-0.05-0.07c0.03,0.14-0.07-0.09-0.12-0.17c-0.21-0.31-0.41-0.63-0.6-0.96c-0.61-1.09-1.01-2.27-1.25-3.49
			c-0.19-0.93-1.61-0.54-1.42,0.39c0.38,1.89,1.15,3.84,2.4,5.34c0.19,0.23,0.64,0.29,0.89,0.11c2.42-1.73,5.65-2.86,8.65-2.44
			c2.7,0.37,4.85,2.18,6.27,4.47c1.17,1.89,1.92,4,2.48,6.14c0.28,1.09,0.62,2.23,0.68,3.36c0.28,4.89-1.17,9.97-3.75,14.1
			c-2.31,3.7-5.63,6.65-9.42,8.78c-4.48,2.51-9.84,4.42-15.02,4.43c-2.9,0.01-5.89-0.7-8.18-2.54c-1.22-0.98-2.01-1.97-2.71-3.34
			c-0.13-0.26,0.02,0.07-0.03-0.05C2.09,38.86,0.66,39.24,1,40.13L1,40.13z"/>
	</g>
	<path class="st0" d="M5.91,41.77c0,0-4.71-3.54,0.44-6.78c0,0,2.21-1.18,6.19-1.33c3.98-0.15,8.4-4.27,9.43-8.54
		c0,0,1.77,0.59,2.8-0.29c1.03-0.88,2.8,0.29,2.8,0.29s1.47,0.44,2.21-0.15c0.74-0.59,2.5-0.29,2.95,0c0.44,0.29,2.65,0,2.8-0.29
		c0.15-0.29,2.8-0.29,2.95,0.29c0.15,0.59-1.18,10.91-14.74,16.8C23.74,41.77,12.84,45.61,5.91,41.77z"/>
	<circle class="st0" cx="26.18" cy="19.3" r="0.96"/>
	<circle class="st0" cx="34.5" cy="22.17" r="1.03"/>
	<circle class="st0" cx="33.18" cy="14.66" r="1.18"/>
	<circle class="st0" cx="26.18" cy="12.08" r="0.96"/>
</g>
</svg>
