<?xml version="1.0" encoding="utf-8"?>
<!-- Generator: Adobe Illustrator 23.0.1, SVG Export Plug-In . SVG Version: 6.00 Build 0)  -->
<svg version="1.1" id="Livello_1" xmlns="http://www.w3.org/2000/svg" xmlns:xlink="http://www.w3.org/1999/xlink" x="0px" y="0px"
	 viewBox="0 0 100 100" style="enable-background:new 0 0 100 100;" xml:space="preserve">
<style type="text/css">
	.st0{fill:#DAD2D8;}
</style>
<g>
	<g>
		<path class="st0" d="M89.87,50c-0.08,16.55-10.56,31.83-26.2,37.5c-15.81,5.73-33.8,0.8-44.53-12.12
			C8.48,62.52,7.15,43.72,15.75,29.43c8.61-14.3,25.74-21.9,42.12-18.56c16.21,3.3,28.91,16.6,31.53,32.92
			C89.73,45.84,89.86,47.92,89.87,50c0.01,1.81,2.82,1.81,2.81,0C92.6,32.19,81.33,16.01,64.59,9.85
			C47.84,3.69,28.37,9.01,17.04,22.78C5.67,36.6,4.07,56.61,13.32,71.99c9.25,15.37,27.53,23.38,45.11,19.89
			C75.7,88.45,89.54,74,92.17,56.58c0.33-2.18,0.5-4.38,0.51-6.58C92.69,48.19,89.88,48.19,89.87,50z"/>
	</g>
	<g>
		<circle class="st0" cx="36.51" cy="41.71" r="5.9"/>
		<circle class="st0" cx="63.49" cy="41.71" r="5.9"/>
	</g>
	<g>
		<path class="st0" d="M26.39,66.59c3.88,3.71,9.57,5.92,14.7,7.04c9.23,2.01,19.47,1.01,27.78-3.65c1.67-0.94,3.39-2.03,4.76-3.38
			c1.29-1.28-0.7-3.26-1.99-1.99c-3.25,3.22-8.47,5.24-13.02,6.27c-8.63,1.95-18.27,0.93-26.05-3.39c-1.58-0.88-3.02-1.76-4.19-2.88
			C27.07,63.35,25.08,65.34,26.39,66.59L26.39,66.59z"/>
	</g>
</g>
</svg>
